<?xml version="1.0" encoding="UTF-8" standalone="no"?>
<!-- Created with Inkscape (http://www.inkscape.org/) -->

<svg
   xmlns:dc="http://purl.org/dc/elements/1.1/"
   xmlns:cc="http://creativecommons.org/ns#"
   xmlns:rdf="http://www.w3.org/1999/02/22-rdf-syntax-ns#"
   xmlns:svg="http://www.w3.org/2000/svg"
   xmlns="http://www.w3.org/2000/svg"
   xmlns:sodipodi="http://sodipodi.sourceforge.net/DTD/sodipodi-0.dtd"
   xmlns:inkscape="http://www.inkscape.org/namespaces/inkscape"
   width="139.75522mm"
   height="16.644419mm"
   viewBox="0 0 495.19566 58.976287"
   id="svg2"
   version="1.1"
   inkscape:version="0.91 r13725"
   sodipodi:docname="boulu.svg"
   inkscape:export-filename="C:\Users\Public\koodikarpat_homepage-master\app\assets\images\logos\boulu.png"
   inkscape:export-xdpi="273.16064"
   inkscape:export-ydpi="273.16064">
  <defs
     id="defs4" />
  <sodipodi:namedview
     id="base"
     pagecolor="#ffffff"
     bordercolor="#666666"
     borderopacity="1.0"
     inkscape:pageopacity="0.0"
     inkscape:pageshadow="2"
     inkscape:zoom="2.8"
     inkscape:cx="202.41392"
     inkscape:cy="49.256384"
     inkscape:document-units="px"
     inkscape:current-layer="layer1"
     showgrid="false"
     fit-margin-top="0"
     fit-margin-left="0"
     fit-margin-right="0"
     fit-margin-bottom="0"
     inkscape:window-width="1920"
     inkscape:window-height="1017"
     inkscape:window-x="-8"
     inkscape:window-y="-8"
     inkscape:window-maximized="1" />
  <metadata
     id="metadata7">
    <rdf:RDF>
      <cc:Work
         rdf:about="">
        <dc:format>image/svg+xml</dc:format>
        <dc:type
           rdf:resource="http://purl.org/dc/dcmitype/StillImage" />
        <dc:title></dc:title>
      </cc:Work>
    </rdf:RDF>
  </metadata>
  <g
     inkscape:label="Taso 1"
     inkscape:groupmode="layer"
     id="layer1"
     transform="translate(-141.60899,-408.53944)">
    <g
       id="g3490"
       transform="matrix(1.25,0,0,1.25,139.14214,407.16801)">
      <path
         id="path3438"
         d="M 18.38,2.56 C 25.53,1.21 33.68,0.91 40.01,5.08 47.09,9.41 51.53,17.71 51.07,26.02 50.83,34.68 45.39,43 37.39,46.44 32.92,48.6 27.81,48.3 22.99,48.17 15.53,47.93 8.47,43.36 4.94,36.83 0.74,29.16 0.97,19.15 5.82,11.83 8.73,7.37 13.3,4.09 18.38,2.56 Z"
         inkscape:connector-curvature="0"
         style="fill:#333333" />
      <path
         id="path3440"
         d="m 207.92143,1.0971428 1.20143,0.014286 L 209.05,48.09 207.88,48.06 Z"
         inkscape:connector-curvature="0"
         style="fill:#333333"
         sodipodi:nodetypes="ccccc" />
      <path
         id="path3442"
         d="M 59.25,2.7489847 70.05,2.69 c 0.25,9.67 -0.15,19.34 0.23,28.99 0.35,3.8 0.85,8.37 4.35,10.64 5.18,2.84 12.59,-0.41 13.2,-6.54 1.49,-10.95 0.26,-22.07 0.95,-33.08 l 7.75,-0.15 c 0.33,8.82 0.12,17.66 0.13,26.49 -0.02,6.13 -1.57,13.08 -7.01,16.67 -4.55,3.25 -10.4,2.52 -15.66,2.45 C 68.61,48.07 63.07,45.16 60.8,40.12 58.31,34.79 59.14,28.74 59,23.05 59.16,16.32 58.67,9.4589847 59.25,2.7489847 Z"
         inkscape:connector-curvature="0"
         style="fill:#333333"
         sodipodi:nodetypes="ccccccccccccc" />
      <path
         id="path3444"
         d="M 107.81695,3.0210153 117.76,2.94 c 0,0 0.23,25.86 0.2,38.78 5.31,0.07 10.66,-0.32 15.95,0.18 1.58,1.33 1.59,3.81 2.33,5.68 -8.43,0.21 -16.87,0.11 -25.3,0.09 -1.06,-0.12 -3.26,-0.04 -3,-1.68 -0.32,-10.31 -0.03,-20.64 -0.13,-30.96 0.09,-4.03 0.007,-12.0089847 0.007,-12.0089847 z"
         inkscape:connector-curvature="0"
         style="fill:#333333"
         sodipodi:nodetypes="ccccccccc" />
      <path
         id="path3446"
         d="m 139.85,2.67 10.78,-0.05 c 0.64,9.77 -0.08,19.58 0.39,29.36 0.31,3.57 0.86,7.75 3.93,10.09 4.79,3.04 12.34,0.42 13.38,-5.45 1.99,-10.92 0.21,-23.055678 1.24,-34.0556782 L 177.27,2.56 c 0.21,8.83 0.09,17.66 0.09,26.49 -0.02,6.02 -1.5,12.83 -6.74,16.48 -4.48,3.37 -10.37,2.72 -15.63,2.64 -5.12,-0.04 -10.44,-2.51 -12.99,-7.1 -2.59,-4.55 -2.3,-9.98 -2.32,-15.03 0.09,-7.79 -0.18,-15.58 0.17,-23.37 z"
         inkscape:connector-curvature="0"
         style="fill:#333333"
         sodipodi:nodetypes="ccccccccccccc" />
      <path
         id="path3448"
         d="m 23.5,7.67 c 4.08,-0.97 8.76,-0.03 11.71,3.08 3.83,4.03 4.87,9.91 4.72,15.29 -0.2,4.96 -1.5,10.27 -5.2,13.81 -4.77,4.54 -13.3,3.93 -17.44,-1.17 C 12.91,33.32 12.21,25.78 13.55,19.2 14.62,14.04 18.07,8.85 23.5,7.67 Z"
         inkscape:connector-curvature="0"
         style="fill:#ffffff" />
      <path
         id="path3450"
         d="m 276.26,12.37 c 1.86,-1.07 2.62,0.54 2.45,2.18 -1.18,0.69 -2.36,0.69 -3.54,0 0.27,-0.77 0.64,-1.5 1.09,-2.18 z"
         inkscape:connector-curvature="0"
         style="fill:#333333" />
      <path
         id="path3452"
         d="m 375.2,30.91 c 0.51,-6.3 1.44,-12.61 2.58,-18.82 0.68,-0.21 2.04,-0.63 2.72,-0.84 -0.48,6.29 -2,12.48 -2.31,18.77 0.16,1.41 1.99,0.38 2.87,0.69 -0.23,0.63 -0.68,1.91 -0.91,2.54 -1.83,-0.17 -4.96,0.35 -4.95,-2.34 z"
         inkscape:connector-curvature="0"
         style="fill:#333333" />
      <path
         id="path3454"
         d="m 345.47,13.64 c 3.4,-0.91 7.91,-0.09 9.49,3.43 2.32,5.75 -0.33,13.52 -6.44,15.64 -3.49,1.21 -8.39,0.61 -10.18,-3.04 -2.58,-6 0.51,-14.32 7.13,-16.03 z"
         inkscape:connector-curvature="0"
         style="fill:#333333" />
      <path
         id="path3456"
         d="m 229.08,13.74 c 3.6,0.23 7.66,-0.73 10.89,1.26 2.61,2.42 0.62,6.52 -2.2,7.8 3.78,1.88 2.78,7.63 -0.84,9.1 -3.3,1.38 -6.99,0.8 -10.48,0.93 0.88,-6.36 1.75,-12.73 2.63,-19.09 z"
         inkscape:connector-curvature="0"
         style="fill:#333333" />
      <path
         id="path3458"
         d="m 231.74,16.04 c 2.23,0.44 7.02,-0.61 6.42,2.96 -0.56,3.38 -4.77,2.62 -7.24,2.96 0.26,-1.98 0.53,-3.95 0.82,-5.92 z"
         inkscape:connector-curvature="0"
         style="fill:#ffffff" />
      <path
         id="path3460"
         d="m 344.46,16.71 c 2.52,-1.51 6.64,-1.15 7.81,1.91 1.19,3.66 0.33,8.34 -2.79,10.82 -2.55,2.01 -7.31,1.83 -8.52,-1.62 -1.13,-3.85 -0.18,-8.94 3.5,-11.11 z"
         inkscape:connector-curvature="0"
         style="fill:#ffffff" />
      <path
         id="path3462"
         d="m 243.66,17.3 c 1.52,0.01 3.04,0.01 4.57,0.01 -0.52,3.91 -1.58,7.78 -1.52,11.73 0.52,3.09 5.21,2.18 6,-0.32 1.02,-3.72 1.18,-7.61 1.81,-11.41 0.95,0 1.91,0 2.87,0 -0.62,4.48 -1.33,8.96 -1.75,13.47 0.62,-0.15 1.86,-0.46 2.49,-0.61 -0.23,0.78 -0.68,2.33 -0.9,3.11 -1.65,-0.33 -3.26,-0.79 -4.79,-1.46 -2.49,1.73 -6.85,2.34 -8.31,-0.98 -0.94,-3.67 0.5,-7.43 0.91,-11.1 -0.46,-0.04 -1.38,-0.1 -1.84,-0.13 0.11,-0.58 0.34,-1.73 0.46,-2.31 z"
         inkscape:connector-curvature="0"
         style="fill:#333333" />
      <path
         id="path3464"
         d="m 263.36,17.4 c 2.38,-1.08 4.97,-0.16 7.34,0.48 0.05,0.82 0.15,2.46 0.19,3.27 -1.97,-1.02 -4.15,-2.53 -6.46,-1.62 -1.13,0.53 -1.4,1.75 -1.03,2.86 1.88,1.28 4.15,1.9 5.93,3.33 1.71,2.13 0.76,5.72 -1.73,6.81 -2.56,1.41 -5.46,0.41 -8.02,-0.41 0,-0.83 -0.01,-2.48 -0.02,-3.31 2.17,2 8.06,3.66 7.94,-0.89 -1.86,-1.4 -4.21,-1.96 -6.03,-3.42 -1.95,-2.19 -0.87,-6.13 1.89,-7.1 z"
         inkscape:connector-curvature="0"
         style="fill:#333333" />
      <path
         id="path3466"
         d="m 273.64,17.3 c 1.47,0.01 2.94,0.01 4.42,0.01 -0.66,4.41 -1.35,8.82 -1.96,13.24 0.69,-0.03 2.06,-0.09 2.75,-0.12 -0.46,0.94 -0.91,1.87 -1.36,2.82 -1.53,-0.3 -4.19,-0.16 -4.12,-2.37 0.12,-3.76 1.03,-7.43 1.55,-11.14 -0.42,-0.04 -1.27,-0.11 -1.7,-0.14 0.11,-0.58 0.32,-1.72 0.42,-2.3 z"
         inkscape:connector-curvature="0"
         style="fill:#333333" />
      <path
         id="path3468"
         d="m 284.97,18.6 c 2.54,-1.48 6.35,-2.84 8.63,-0.18 1.86,3.78 -0.17,8.08 -0.59,12.01 0.77,0.07 2.29,0.19 3.06,0.25 -0.82,2.39 -4.47,3.51 -5.68,0.88 -0.38,-3.85 1.82,-7.68 0.73,-11.48 -1.84,-1.94 -5.46,-0.65 -6.07,1.82 -0.84,3.58 -1.08,7.28 -1.63,10.92 -0.97,-0.01 -1.93,-0.01 -2.89,-0.01 0.79,-5 1.16,-10.07 2.22,-15.02 0.62,-0.26 1.87,-0.77 2.5,-1.03 -0.07,0.46 -0.21,1.38 -0.28,1.84 z"
         inkscape:connector-curvature="0"
         style="fill:#333333" />
      <path
         id="path3470"
         d="M 298.84,31.18 C 295.01,25.91 298.73,16 306,16.92 c 3.98,-0.02 5.56,5.36 2.91,7.96 -2.3,2.45 -5.97,1.92 -8.99,2 0.96,1.32 1.34,3.53 3.26,3.79 2.24,0.65 4.25,-0.86 6.27,-1.56 -0.77,4.96 -7.78,5.39 -10.61,2.07 z"
         inkscape:connector-curvature="0"
         style="fill:#333333" />
      <path
         id="path3472"
         d="m 315.3,17.43 c 2.39,-1.12 5.01,-0.2 7.4,0.43 0.06,0.82 0.19,2.46 0.25,3.28 -2.34,-1.38 -6,-3.26 -7.91,-0.19 0.8,3.75 7.19,2.75 7.17,7.07 0.73,6.37 -11.59,7.48 -10.95,0.7 2.27,1.87 8.35,3.95 8.26,-0.81 -1.87,-1.38 -4.2,-1.96 -6.02,-3.41 -1.92,-2.16 -0.88,-6.05 1.8,-7.07 z"
         inkscape:connector-curvature="0"
         style="fill:#333333" />
      <path
         id="path3474"
         d="m 327.51,17.6 c 2.45,-1.37 5.27,-0.38 7.79,0.25 0.02,0.81 0.06,2.45 0.08,3.27 -2.1,-1.65 -7.56,-3.44 -7.57,0.83 2.04,2.54 7.75,2.44 6.91,6.93 -0.65,4.97 -6.98,5.09 -10.52,3.2 -0.04,-0.83 -0.12,-2.48 -0.16,-3.3 2.25,1.97 7.96,3.74 8.08,-0.85 -1.83,-1.28 -4.01,-1.94 -5.83,-3.24 -2.17,-1.91 -1.32,-5.89 1.22,-7.09 z"
         inkscape:connector-curvature="0"
         style="fill:#333333" />
      <path
         id="path3476"
         d="m 358.41,17.31 c 1.53,0 3.06,0 4.6,0 -0.53,3.89 -1.58,7.74 -1.52,11.68 0.44,3.22 5.33,2.19 6.05,-0.39 0.94,-3.69 1.15,-7.53 1.76,-11.29 0.72,0 2.15,0 2.87,0 -0.61,4.47 -1.31,8.92 -1.76,13.4 0.64,-0.11 1.94,-0.33 2.58,-0.44 -0.24,0.75 -0.73,2.25 -0.98,2.99 -1.61,-0.29 -3.21,-0.68 -4.62,-1.54 -2.49,1.77 -6.94,2.53 -8.45,-0.83 -1.03,-3.69 0.49,-7.49 0.88,-11.18 l -1.8,-0.06 c 0.09,-0.59 0.29,-1.76 0.39,-2.34 z"
         inkscape:connector-curvature="0"
         style="fill:#333333" />
      <path
         id="path3478"
         d="m 383.68,17.3 c 1.52,0.01 3.03,0.01 4.56,0.01 -0.52,3.92 -1.59,7.81 -1.52,11.78 0.55,3.02 5.19,2.12 5.99,-0.35 1.03,-3.72 1.18,-7.62 1.82,-11.43 0.95,0 1.9,0 2.86,0 -0.61,4.49 -1.33,8.96 -1.74,13.48 0.62,-0.16 1.86,-0.47 2.48,-0.62 -0.22,0.78 -0.68,2.34 -0.91,3.12 -1.64,-0.34 -3.25,-0.8 -4.77,-1.47 -2.47,1.73 -6.84,2.34 -8.29,-0.95 -0.99,-3.68 0.5,-7.46 0.89,-11.13 -0.46,-0.04 -1.39,-0.11 -1.86,-0.15 0.12,-0.57 0.37,-1.71 0.49,-2.29 z"
         inkscape:connector-curvature="0"
         style="fill:#333333" />
      <path
         id="path3480"
         d="m 300.22,24.76 c 0.77,-2.28 1.63,-5.63 4.67,-5.47 2.27,-0.35 3.25,2.91 1.72,4.27 -1.66,1.69 -4.27,1.06 -6.39,1.2 z"
         inkscape:connector-curvature="0"
         style="fill:#ffffff" />
      <path
         id="path3482"
         d="m 230.63,24.04 c 2.27,0.41 6.88,-0.59 6.68,2.94 -0.17,3.89 -4.89,3.3 -7.59,3.54 0.29,-2.17 0.59,-4.33 0.91,-6.48 z"
         inkscape:connector-curvature="0"
         style="fill:#ffffff" />
    </g>
  </g>
</svg>
